# xmcd
#
# Track frame offsets: 
#        150
#        14510
#        28162
#        44063
#        62928
#        83819
#        92941
#        105101
#        114892
#        130485
#        151992
#        168062
#        181293
#
# Disc length: 2616 seconds
#
# Revision: 0
# Processed by: cddbd v1.5.2PL0 Copyright (c) Steve Scherf et al.
# Submitted via: ExactAudioCopy v0.99pb5
#
DISCID=a30a360d
DTITLE=Josh Allen and The Whisky Brothers - Welcome To The Roadhouse
DYEAR=2008
DGENRE=Blues
TTITLE0=Hey Hey It's Ok
TTITLE1=Love Is Old
TTITLE2=With Wings
TTITLE3=Wretched
TTITLE4=Freaky Blues
TTITLE5=Hard
TTITLE6=Everything Is Outlawed
TTITLE7=Dust This Town
TTITLE8=This Train
TTITLE9=Dust Behind The Plow
TTITLE10=Dirty Dishes
TTITLE11=Gotta Git Outta Here
TTITLE12=Fine Line
EXTD=
EXTT0=
EXTT1=
EXTT2=
EXTT3=
EXTT4=
EXTT5=
EXTT6=
EXTT7=
EXTT8=
EXTT9=
EXTT10=
EXTT11=
EXTT12=
PLAYORDER=
